<?xml version="1.0" standalone="no"?>
<!DOCTYPE svg PUBLIC "-//W3C//DTD SVG 20010904//EN"
 "http://www.w3.org/TR/2001/REC-SVG-20010904/DTD/svg10.dtd">
<svg version="1.0" xmlns="http://www.w3.org/2000/svg"
 width="216.000000pt" height="233.000000pt" viewBox="0 0 216.000000 233.000000"
 preserveAspectRatio="xMidYMid meet">

<g transform="translate(0.000000,233.000000) scale(0.100000,-0.100000)"
fill="#000000" stroke="none">
<path d="M408 1929 c-17 -9 -18 -50 -18 -618 0 -535 2 -610 15 -621 15 -13
577 -130 621 -130 34 0 54 27 54 71 l0 39 146 0 c140 0 178 7 196 34 4 6 8 98
8 204 0 179 -1 193 -20 212 -25 25 -62 26 -83 2 -14 -16 -17 -43 -17 -170 l0
-152 -115 0 -115 0 0 468 c0 257 -4 473 -9 480 -4 8 -48 26 -97 42 l-89 29
213 0 212 1 0 -154 c0 -170 5 -186 60 -186 54 0 60 23 60 236 0 172 -2 193
-18 207 -17 15 -66 17 -503 17 -310 0 -490 -4 -501 -11z"/>
<path d="M1497 1522 c-28 -31 -20 -63 25 -109 l42 -43 -167 0 c-154 0 -169 -2
-187 -20 -24 -24 -25 -48 -4 -78 15 -21 21 -22 186 -22 l171 0 -42 -45 c-61
-66 -50 -125 22 -125 26 0 47 16 129 98 130 130 130 126 -5 260 -108 108 -136
122 -170 84z"/>
<path d="M0 85 l0 -85 1080 0 1080 0 0 85 0 85 -1080 0 -1080 0 0 -85z m218
13 c14 5 15 4 2 -10 -9 -10 -17 -12 -21 -6 -4 6 -9 5 -12 -3 -3 -8 -6 -3 -6
11 -1 18 2 21 10 13 6 -6 19 -9 27 -5z m77 2 c-17 -7 -17 -9 -2 -9 19 -1 23
-26 6 -37 -6 -3 -16 -1 -22 6 -9 10 -9 11 0 6 6 -3 14 -2 17 3 3 5 -1 11 -9
15 -23 8 -18 26 8 25 21 0 21 -1 2 -9z m32 -27 c-3 -10 -5 -4 -5 12 0 17 2 24
5 18 2 -7 2 -21 0 -30z m112 21 c4 3 7 -3 7 -13 0 -10 -6 -18 -13 -18 -8 0
-13 11 -12 26 0 14 3 20 6 13 2 -6 8 -10 12 -8z m-41 -5 c-9 -6 -8 -12 3 -25
13 -16 12 -16 -8 -6 -14 8 -24 9 -28 2 -9 -15 -25 -2 -25 20 0 14 7 18 35 17
19 -1 29 -4 23 -8z m1323 -13 c5 3 9 0 9 -6 0 -15 -23 -7 -26 8 -1 7 0 8 3 2
2 -5 9 -8 14 -4z m253 -1 c3 -8 1 -15 -4 -15 -6 0 -10 7 -10 15 0 8 2 15 4 15
2 0 6 -7 10 -15z m66 2 c0 -5 7 -4 15 3 12 10 15 9 15 -4 0 -12 -8 -16 -30
-14 -30 2 -44 25 -15 25 8 0 15 -5 15 -10z m-1916 -13 c3 -8 2 -12 -4 -9 -6 3
-10 10 -10 16 0 14 7 11 14 -7z m126 12 c0 -2 -8 -10 -17 -17 -16 -13 -17 -12
-4 4 13 16 21 21 21 13z m1340 -6 c0 -5 -2 -10 -4 -10 -3 0 -8 5 -11 10 -3 6
-1 10 4 10 6 0 11 -4 11 -10z m100 4 c0 -8 -19 -13 -24 -6 -3 5 1 9 9 9 8 0
15 -2 15 -3z m80 -4 c0 -5 -5 -10 -11 -10 -5 0 -7 5 -4 10 3 6 8 10 11 10 2 0
4 -4 4 -10z m25 0 c3 -5 1 -10 -4 -10 -6 0 -11 5 -11 10 0 6 2 10 4 10 3 0 8
-4 11 -10z m85 0 c-20 -13 -33 -13 -25 0 3 6 14 10 23 10 15 0 15 -2 2 -10z"/>
<path d="M350 74 c0 -8 5 -12 10 -9 6 3 10 10 10 16 0 5 -4 9 -10 9 -5 0 -10
-7 -10 -16z"/>
</g>
</svg>
